<?xml version="1.0" encoding="UTF-8" standalone="no"?>
<!-- Created with Inkscape (http://www.inkscape.org/) -->

<svg
   width="20.32mm"
   height="128.5mm"
   viewBox="0 0 20.32 128.5"
   version="1.1"
   id="svg5"
   inkscape:version="1.2.1 (9c6d41e410, 2022-07-14)"
   sodipodi:docname="notiphy.svg"
   xmlns:inkscape="http://www.inkscape.org/namespaces/inkscape"
   xmlns:sodipodi="http://sodipodi.sourceforge.net/DTD/sodipodi-0.dtd"
   xmlns="http://www.w3.org/2000/svg"
   xmlns:svg="http://www.w3.org/2000/svg">
  <sodipodi:namedview
     id="namedview7"
     pagecolor="#505050"
     bordercolor="#000000"
     borderopacity="1"
     inkscape:showpageshadow="0"
     inkscape:pageopacity="0"
     inkscape:pagecheckerboard="0"
     inkscape:deskcolor="#505050"
     inkscape:document-units="mm"
     showgrid="false"
     inkscape:zoom="1.2550228"
     inkscape:cx="-33.863927"
     inkscape:cy="222.30672"
     inkscape:current-layer="layer2" />
  <defs
     id="defs2" />
  <g
     inkscape:label="Layer 1"
     inkscape:groupmode="layer"
     id="layer1">
    <rect
       style="fill:#1a1a1a;stroke-width:0.964999"
       id="rect283"
       width="24.033426"
       height="132.81631"
       x="-1.8567133"
       y="-2.1581573" />
    <g
       aria-label="N"
       id="text608"
       style="font-size:12.4201px;line-height:1.25;font-family:'Agency FB';-inkscape-font-specification:'Agency FB';fill:#f9f9f9;stroke-width:0.388128"
       transform="translate(0,7.1678645)">
      <path
         d="M 12.115802,14.405332 H 11.533609 L 8.9986476,7.4250897 V 14.405332 H 8.2041978 V 4.9143859 H 8.834906 l 2.486446,6.8589521 V 4.9143859 h 0.79445 z"
         id="path648" />
    </g>
    <g
       aria-label="O"
       id="text612"
       style="font-size:12.4201px;line-height:1.25;font-family:'Agency FB';-inkscape-font-specification:'Agency FB';fill:#f9f9f9;stroke-width:0.388128"
       transform="translate(0,7.1678645)">
      <path
         d="m 12.164318,26.72111 q 0,0.297161 -0.194064,0.48516 -0.188,0.188 -0.48516,0.188 H 8.8288417 q -0.2971606,0 -0.4851601,-0.188 Q 8.155682,27.018271 8.155682,26.72111 v -8.144626 q 0,-0.297161 0.1879996,-0.48516 0.1879995,-0.188 0.4851601,-0.188 h 2.6562523 q 0.29716,0 0.48516,0.188 0.194064,0.187999 0.194064,0.48516 z M 11.321352,26.64834 V 18.649258 H 8.9986478 v 7.999078 z"
         id="path651" />
    </g>
    <g
       aria-label="T"
       id="text616"
       style="font-size:12.4201px;line-height:1.25;font-family:'Agency FB';-inkscape-font-specification:'Agency FB';fill:#f9f9f9;stroke-width:0.388128"
       transform="translate(0,7.1678645)">
      <path
         d="m 12.055156,31.638197 h -1.467609 v 8.745012 H 9.7445811 V 31.638197 H 8.2648426 v -0.745933 h 3.7903134 z"
         id="path654" />
    </g>
    <g
       aria-label="I"
       id="text620"
       style="font-size:12.4201px;line-height:1.25;font-family:'Agency FB';-inkscape-font-specification:'Agency FB';fill:#f9f9f9;stroke-width:0.388128"
       transform="translate(0,7.1678645)">
      <path
         d="M 10.581483,53.372147 H 9.7385169 v -9.490946 h 0.8429661 z"
         id="path657" />
    </g>
    <g
       aria-label="P"
       id="text624"
       style="font-size:12.4201px;line-height:1.25;font-family:'Agency FB';-inkscape-font-specification:'Agency FB';fill:#f9f9f9;stroke-width:0.388128"
       transform="translate(0,7.1678645)">
      <path
         d="m 12.039996,61.915804 q 0,0.297161 -0.194064,0.491225 -0.188,0.187999 -0.485161,0.187999 H 9.1229702 v 3.766056 H 8.2800044 v -9.490946 h 3.0807666 q 0.297161,0 0.485161,0.188 0.194064,0.187999 0.194064,0.48516 z M 11.19703,61.84303 V 57.616072 H 9.1229702 v 4.226958 z"
         id="path660" />
    </g>
    <g
       aria-label="H"
       id="text628"
       style="font-size:12.4201px;line-height:1.25;font-family:'Agency FB';-inkscape-font-specification:'Agency FB';fill:#f9f9f9;stroke-width:0.388128"
       transform="translate(0,7.1678645)">
      <path
         d="M 12.146124,79.350014 H 11.303158 V 74.789508 H 9.016841 v 4.560506 H 8.1738752 V 69.859068 H 9.016841 v 4.172377 h 2.286317 v -4.172377 h 0.842966 z"
         id="path663" />
    </g>
    <g
       aria-label="Y"
       id="text632"
       style="font-size:12.4201px;line-height:1.25;font-family:'Agency FB';-inkscape-font-specification:'Agency FB';fill:#f9f9f9;stroke-width:0.388128"
       transform="translate(0,7.1678645)">
      <path
         d="m 12.309866,82.902601 -1.152256,3.83883 q -0.218322,0.576128 -0.576127,1.922447 v 3.675088 H 9.7385169 V 88.663878 Q 9.6536139,88.202976 9.4777433,87.693558 9.1866472,86.820269 9.1623892,86.741431 l -1.1522554,-3.83883 q 0,-0.0061 0,-0.05458 h 0.8550948 l 1.3038684,4.748505 1.291739,-4.748505 h 0.84903 q 0,0.04245 0,0.05458 z"
         id="path666" />
    </g>
  </g>
  <g
     inkscape:groupmode="layer"
     id="layer2"
     inkscape:label="components"
     style="display:none">
    <circle
       style="fill:#ff0000;stroke-width:0.964999"
       id="path390"
       cx="10.16"
       cy="109.99784"
       r="3.5839322"
       inkscape:label="toggle" />
  </g>
</svg>
